<?xml version="1.0" encoding="UTF-8" standalone="no"?>
<svg viewBox="-10 -10 20 20" xmlns="http://www.w3.org/2000/svg" version="1.1" height="20px" width="20px">
  <!-- <path d="M 18,2 A 5,5 0 0 0 13,7 L 13, 13 A 5, 5 0 0 0 18,17 M 13,7 A 5,5 0 0 0 8,2 L 7,2 A 5,5 0 0 0 2,7 L 2,12 A 5, 5 0 0 0 7,17 L 10,17" style="stroke-width: 1; stroke-linecap: round; stroke-linejoin: bevel; stroke: #4c566a" fill="none"></path>-->
  <rect stroke="#4c566a" fill="none" id="r1" width="16" height="16" x="-8" y="-8"/>
  <use id="r2" href="#r1" transform="rotate(-20 0 0) scale(.78)"/>
  <use id="r3" href="#r2" transform="rotate(-20 0 0) scale(.78)"/>
  <use id="r4" href="#r3" transform="rotate(-20 0 0) scale(.78)"/>
  <use id="r5" href="#r4" transform="rotate(-20 0 0) scale(.78)"/>
  <use id="r6" href="#r5" transform="rotate(-20 0 0) scale(.78)"/>
  <use id="r7" href="#r6" transform="rotate(-20 0 0) scale(.78)"/>
</svg>
